<?xml version="1.0" encoding="UTF-8" standalone="no"?>
<!DOCTYPE svg PUBLIC "-//W3C//DTD SVG 1.1//EN" "http://www.w3.org/Graphics/SVG/1.1/DTD/svg11.dtd">
<svg width="100%" height="100%" viewBox="0 0 308 274" version="1.1" xmlns="http://www.w3.org/2000/svg" xmlns:xlink="http://www.w3.org/1999/xlink" xml:space="preserve" xmlns:serif="http://www.serif.com/" style="fill-rule:evenodd;clip-rule:evenodd;stroke-linejoin:round;stroke-miterlimit:2;">
    <g transform="matrix(1,0,0,1,-215.70601,-1852.4432)">
        <g>
            <g transform="matrix(1,0,0,1,-282.193764,28.417919)">
                <path d="M715.596,1930.803C713.816,1931.051 712.069,1930.17 711.211,1928.59C710.352,1927.011 710.563,1925.065 711.74,1923.706C714.879,1920.124 718.303,1916.169 720.606,1913.374C737.238,1893.183 751.293,1872.528 762.769,1851.41C763.89,1849.318 765.995,1847.936 768.361,1847.742C770.726,1847.547 773.029,1848.565 774.477,1850.447C794.173,1876.328 805.877,1908.619 805.877,1943.622C805.877,1965.903 801.134,1987.085 792.605,2006.214C791.646,2008.297 789.723,2009.776 787.463,2010.169C785.203,2010.561 782.895,2009.816 781.29,2008.177C769.505,1996.223 757.557,1985.003 745.425,1974.535C735.951,1966.361 726.144,1958.447 716.001,1950.794C714.717,1949.829 714.075,1948.23 714.336,1946.645C714.598,1945.06 715.718,1943.751 717.244,1943.249C736.452,1936.924 784.06,1921.248 784.06,1921.248C784.06,1921.248 737.762,1927.71 715.596,1930.803Z" style="fill:rgb(108,20,96);"/>
            </g>
            <g transform="matrix(1,0,0,1,-282.193764,28.417919)">
                <path d="M680.26,1976.829C680.538,1975.372 681.545,1974.161 682.925,1973.62C684.306,1973.08 685.868,1973.286 687.061,1974.167C691.177,1977.212 695.208,1980.289 699.155,1983.399C713.101,1994.39 726.633,2006.15 739.752,2018.678C747.198,2025.789 754.702,2033.357 762.262,2041.381C764.817,2044.098 764.793,2048.339 762.209,2051.027C734.221,2079.754 695.123,2097.61 651.888,2097.61C612.815,2097.61 577.122,2083.026 549.959,2059.009C548.247,2057.476 547.398,2055.2 547.69,2052.92C547.981,2050.641 549.375,2048.651 551.418,2047.598C582.158,2031.641 610.724,2013.554 637.107,1993.327C644.592,1987.588 651.853,1981.73 658.889,1975.751C660.17,1974.658 661.97,1974.41 663.499,1975.117C665.027,1975.824 666.005,1977.356 666.002,1979.04C665.964,2000.721 665.874,2052.159 665.874,2052.159C665.874,2052.159 676.523,1996.396 680.26,1976.829Z" style="fill:rgb(108,20,96);"/>
            </g>
            <g transform="matrix(1,0,0,1,-282.193764,28.417919)">
                <path d="M643.196,1933.283C644.245,1934.053 644.89,1935.256 644.952,1936.555C645.014,1937.855 644.487,1939.113 643.516,1939.979C633.537,1948.851 623.01,1957.474 611.934,1965.848C585.882,1985.546 557.174,2003.535 525.809,2019.816C522.449,2021.554 518.316,2020.306 516.478,2017C504.637,1995.174 497.9,1970.179 497.9,1943.622C497.9,1896.285 519.305,1853.909 552.956,1825.652C554.213,1824.603 555.799,1824.029 557.436,1824.029C575.578,1824.025 686.947,1824.025 723.413,1824.025C725.876,1824.025 728.157,1825.319 729.421,1827.432C730.684,1829.546 730.745,1832.168 729.58,1834.337C718.222,1855.135 704.301,1875.277 687.809,1894.76C679.458,1904.625 670.537,1914.231 661.046,1923.58C659.721,1924.882 657.711,1925.189 656.057,1924.343C641.405,1916.843 573.459,1882.066 573.459,1882.066C573.459,1882.066 627.432,1921.706 643.196,1933.283Z" style="fill:rgb(108,20,96);"/>
            </g>
        </g>
    </g>
</svg>
